Coordinates
version=1
nRows=24
nColumns=34
inDegrees=no

Units are S.I. units (second, meters, Newtons, ...)
If the header above contains a line with 'inDegrees', this indicates whether rotational values are in degrees (yes) or radians (no).

endheader
time	pelvis_tilt	pelvis_list	pelvis_rotation	pelvis_tx	pelvis_ty	pelvis_tz	hip_flexion_r	hip_adduction_r	hip_rotation_r	knee_angle_r	ankle_angle_r	subtalar_angle_r	mtp_angle_r	hip_flexion_l	hip_adduction_l	hip_rotation_l	knee_angle_l	ankle_angle_l	subtalar_angle_l	mtp_angle_l	lumbar_extension	lumbar_bending	lumbar_rotation	arm_flex_r	arm_add_r	arm_rot_r	elbow_flex_r	pro_sup_r	arm_flex_l	arm_add_l	arm_rot_l	elbow_flex_l	pro_sup_l
6.99	0.0207895	0.0359083	0.0228677	-0.195311	0.970693	-0.604835	0.0726357	-0.163402	-0.153115	0.251677	0.306865	0.380227	-0.00241763	0.040055	-0.0889332	-0.124974	0.15842	0.19838	0.254885	-0.00241763	-0.0777979	-0.0508596	-0.0538177	-0.285211	-0.165395	-0.147735	2.03851	1.91201	-0.290951	-0.147128	-0.138973	2.07418	1.87493
7	0.0185261	0.0360199	0.0225487	-0.196746	0.970491	-0.604786	0.0794287	-0.163541	-0.151666	0.255936	0.30616	0.378371	-0.00241763	0.0479261	-0.0894064	-0.127856	0.165212	0.198879	0.259189	-0.00241763	-0.0804054	-0.050855	-0.0530299	-0.283454	-0.1655	-0.148426	2.03857	1.91111	-0.287569	-0.147908	-0.140083	2.07359	1.87054
7.01	0.0145991	0.0363361	0.0229469	-0.198337	0.970128	-0.604702	0.0885545	-0.163915	-0.150219	0.261046	0.305503	0.375675	-0.00241763	0.0589458	-0.0897461	-0.129779	0.173857	0.19959	0.263183	-0.00241763	-0.0814722	-0.0513124	-0.0529551	-0.281917	-0.165728	-0.148577	2.03912	1.91058	-0.284693	-0.148199	-0.141577	2.07486	1.86417
7.02	0.00939669	0.0372041	0.0238788	-0.200092	0.969654	-0.604712	0.10013	-0.165227	-0.149423	0.26797	0.305333	0.373712	-0.00241763	0.0722019	-0.0891906	-0.129378	0.183449	0.199554	0.264744	-0.00241763	-0.081653	-0.0523101	-0.0536295	-0.280313	-0.166413	-0.147672	2.04035	1.90845	-0.282031	-0.147942	-0.14325	2.07762	1.85679
7.03	0.00352961	0.0384099	0.0245722	-0.202063	0.969103	-0.604796	0.113923	-0.167273	-0.149247	0.277069	0.305746	0.37356	-0.00241763	0.08682	-0.0880993	-0.127753	0.193782	0.198838	0.264922	-0.00241763	-0.0817369	-0.0534933	-0.0543772	-0.278203	-0.167518	-0.146273	2.04213	1.90503	-0.278799	-0.148025	-0.144848	2.08139	1.85045
7.04	-0.00295675	0.0395507	0.0250256	-0.204264	0.968456	-0.604835	0.129592	-0.169341	-0.149178	0.287759	0.306454	0.374103	-0.00241763	0.103003	-0.0873359	-0.12638	0.205398	0.198343	0.265981	-0.00241763	-0.081697	-0.0547118	-0.055135	-0.275355	-0.16863	-0.145176	2.04397	1.90267	-0.274779	-0.149151	-0.146676	2.08613	1.84715
7.05	-0.01029	0.0408789	0.0258217	-0.206653	0.967685	-0.604817	0.146762	-0.171556	-0.148468	0.299214	0.307309	0.373304	-0.00241763	0.120863	-0.0865932	-0.125157	0.218036	0.198369	0.267827	-0.00241763	-0.0811979	-0.0563592	-0.0562503	-0.271914	-0.16993	-0.144146	2.0458	1.90271	-0.27007	-0.15113	-0.148564	2.0914	1.84742
7.06	-0.0182395	0.042701	0.0268797	-0.209219	0.966806	-0.604824	0.165025	-0.174267	-0.146436	0.311037	0.308194	0.370557	-0.00241763	0.139488	-0.0851106	-0.123466	0.230484	0.198314	0.268565	-0.00241763	-0.0805594	-0.0584379	-0.0576295	-0.267782	-0.17197	-0.142586	2.04781	1.90467	-0.264403	-0.153509	-0.149928	2.09644	1.84975
7.07	-0.026264	0.0447521	0.0276619	-0.211998	0.965859	-0.604888	0.183984	-0.177233	-0.143547	0.323262	0.308864	0.367331	-0.00241763	0.157948	-0.0830432	-0.121305	0.242126	0.197725	0.267597	-0.00241763	-0.0805611	-0.0604248	-0.0587656	-0.262719	-0.174378	-0.141112	2.05003	1.90699	-0.257207	-0.15648	-0.150295	2.10126	1.85133
7.08	-0.0342876	0.0467267	0.0282007	-0.215007	0.964836	-0.604948	0.203597	-0.180164	-0.140977	0.336104	0.309398	0.365044	-0.00241763	0.176585	-0.0810584	-0.119129	0.253688	0.197034	0.266554	-0.00241763	-0.0814214	-0.0621698	-0.059287	-0.256885	-0.176292	-0.140895	2.05247	1.90878	-0.248093	-0.160267	-0.149653	2.10618	1.8512
7.09	-0.042923	0.0486144	0.0287569	-0.218274	0.963663	-0.604954	0.22468	-0.183015	-0.13841	0.349966	0.310187	0.362811	-0.00241763	0.196676	-0.0794053	-0.117309	0.266213	0.196889	0.266514	-0.00241763	-0.08248	-0.0638446	-0.0593353	-0.250217	-0.177977	-0.141439	2.05513	1.90972	-0.237363	-0.164382	-0.148794	2.11103	1.85121
7.1	-0.0526612	0.0503683	0.0291658	-0.221829	0.962265	-0.604958	0.248011	-0.185576	-0.134128	0.36496	0.311204	0.358646	-0.00241763	0.218992	-0.0779617	-0.115636	0.280087	0.197268	0.266343	-0.00241763	-0.0832105	-0.0653146	-0.0595	-0.242051	-0.180406	-0.140948	2.05784	1.90926	-0.225899	-0.168566	-0.14839	2.11577	1.85327
7.11	-0.0632757	0.0517603	0.0295005	-0.225679	0.960633	-0.605036	0.273224	-0.187575	-0.127911	0.380729	0.312076	0.352438	-0.00241763	0.243527	-0.0767292	-0.113099	0.295605	0.197782	0.264829	-0.00241763	-0.0840151	-0.0661989	-0.0604945	-0.232005	-0.18365	-0.138947	2.0606	1.90792	-0.214119	-0.172829	-0.148314	2.12093	1.85564
7.12	-0.0745211	0.0526553	0.0304213	-0.229867	0.958745	-0.60519	0.300029	-0.18919	-0.121781	0.39758	0.313005	0.345819	-0.00241763	0.270791	-0.0758472	-0.108918	0.313842	0.198468	0.262566	-0.00241763	-0.0854124	-0.0663552	-0.0626869	-0.220399	-0.186943	-0.136676	2.06384	1.90642	-0.201517	-0.176481	-0.148698	2.12696	1.85466
7.13	-0.0866349	0.0530521	0.032201	-0.234451	0.956526	-0.605356	0.328981	-0.190636	-0.117043	0.416282	0.314609	0.339319	-0.00241763	0.301864	-0.0756309	-0.104371	0.336152	0.200014	0.261563	-0.00241763	-0.087229	-0.0659293	-0.0655988	-0.207803	-0.189743	-0.135435	2.06779	1.90638	-0.187428	-0.179371	-0.149951	2.13349	1.85251
7.14	-0.099719	0.0528038	0.0341755	-0.239353	0.953928	-0.605463	0.360119	-0.191395	-0.112425	0.43658	0.316909	0.33173	-0.00241763	0.336709	-0.0767583	-0.101949	0.362731	0.203308	0.263651	-0.00241763	-0.0891359	-0.0649305	-0.0682291	-0.194487	-0.192192	-0.135058	2.07259	1.90398	-0.171859	-0.182385	-0.151773	2.13986	1.85471
7.15	-0.113496	0.052074	0.0356553	-0.244418	0.950951	-0.605522	0.39287	-0.191355	-0.106489	0.457889	0.319712	0.322785	-0.00241763	0.37371	-0.0790708	-0.101696	0.391818	0.20848	0.26788	-0.00241763	-0.0912043	-0.0634922	-0.0701653	-0.180277	-0.194663	-0.135286	2.07773	1.90279	-0.155431	-0.185381	-0.153772	2.14611	1.86046
7.16	-0.127573	0.0516723	0.0369591	-0.249609	0.947596	-0.605631	0.42671	-0.191864	-0.100142	0.480302	0.323652	0.314239	-0.00241763	0.411021	-0.0808622	-0.101071	0.420918	0.214722	0.27095	-0.00241763	-0.093923	-0.0622287	-0.0720357	-0.165129	-0.197114	-0.136094	2.08337	1.90473	-0.138652	-0.18744	-0.155821	2.15335	1.8612
7.17	-0.141558	0.0518185	0.0387204	-0.254987	0.943854	-0.605797	0.460997	-0.193534	-0.0946867	0.503689	0.329407	0.3069	-0.00241763	0.447943	-0.0814795	-0.0994794	0.449241	0.221671	0.271928	-0.00241763	-0.0978443	-0.0612602	-0.074504	-0.149252	-0.199211	-0.137128	2.09011	1.90518	-0.121366	-0.188938	-0.158244	2.16153	1.85832
7.18	-0.155528	0.0515693	0.0405383	-0.260585	0.939667	-0.605894	0.495826	-0.194759	-0.089453	0.527765	0.336424	0.298952	-0.00241763	0.48523	-0.0828423	-0.0993392	0.47797	0.230239	0.273242	-0.00241763	-0.102797	-0.0598237	-0.0771584	-0.132553	-0.201172	-0.137877	2.09769	1.9028	-0.103273	-0.190914	-0.160916	2.17012	1.85631
7.19	-0.170249	0.0503319	0.0416181	-0.266418	0.934943	-0.605869	0.532649	-0.194346	-0.0834155	0.553134	0.34361	0.288403	-0.00241763	0.524096	-0.0863792	-0.101867	0.507922	0.241199	0.275716	-0.00241763	-0.107827	-0.0575581	-0.0788934	-0.115068	-0.203575	-0.138774	2.10545	1.90249	-0.084314	-0.193232	-0.163181	2.1785	1.85748
7.2	-0.186313	0.0487695	0.0421442	-0.272517	0.929631	-0.605809	0.5726	-0.193429	-0.0769187	0.580729	0.350918	0.275157	-0.00241763	0.564915	-0.0908782	-0.105495	0.538518	0.253882	0.277257	-0.00241763	-0.112266	-0.05508	-0.079413	-0.0972918	-0.206262	-0.140493	2.11373	1.90363	-0.0643874	-0.19523	-0.164396	2.18667	1.85732
7.21	-0.203557	0.0475392	0.0427972	-0.278876	0.923713	-0.605777	0.615433	-0.193382	-0.0709327	0.610774	0.359487	0.260623	-0.00241763	0.607374	-0.0950204	-0.10872	0.569421	0.267551	0.277608	-0.00241763	-0.116045	-0.0529425	-0.0801419	-0.0787888	-0.20874	-0.142063	2.12248	1.90152	-0.0439082	-0.196902	-0.166037	2.195	1.85444
7.22	-0.22165	0.0460735	0.0437192	-0.285443	0.917152	-0.605753	0.660497	-0.193755	-0.0662316	0.642925	0.370288	0.246339	-0.00241763	0.651421	-0.0996239	-0.111427	0.601249	0.28286	0.278935	-0.00241763	-0.119054	-0.0506469	-0.0826413	-0.0582665	-0.2113	-0.141939	2.13034	1.89853	-0.0240496	-0.198327	-0.170235	2.20404	1.8514
